<svg xmlns="http://www.w3.org/2000/svg" viewBox="0 0 64 64" role="img" aria-labelledby="title desc">
  <title id="title">Sleepercells logo</title>
  <desc id="desc">SC monogram on a blue to purple gradient background</desc>
  <defs>
    <linearGradient id="g" x1="0%" y1="0%" x2="100%" y2="100%">
      <stop offset="0%" stop-color="#22D3EE" />
      <stop offset="50%" stop-color="#60A5FA" />
      <stop offset="100%" stop-color="#A855F7" />
    </linearGradient>
    <linearGradient id="glow" x1="0%" y1="0%" x2="100%" y2="100%">
      <stop offset="0%" stop-color="#0A0E2A" stop-opacity="0.9" />
      <stop offset="100%" stop-color="#170E39" stop-opacity="0.9" />
    </linearGradient>
  </defs>
  <rect width="64" height="64" rx="14" fill="url(#glow)" />
  <rect x="4" y="4" width="56" height="56" rx="12" fill="url(#g)" opacity="0.2" />
  <path
    d="M18 40.5c2.8 2.4 7 3.7 11.6 3.7 7.8 0 12.3-3.5 12.3-9 0-4.4-3.5-7-9.7-8l-4.7-.7c-3.3-.5-4.7-1.6-4.7-3.5 0-2.4 2.5-4.1 6.2-4.1 3.1 0 5.7 1 7.5 2.7l3.3-3.8C36.9 14.4 32.9 13 28.1 13 20.7 13 15.6 16.7 15.6 22.3c0 4.7 3.3 7.3 9.2 8.2l4.7.7c3.6.5 5.2 1.7 5.2 3.7 0 2.6-2.7 4.4-6.9 4.4-3.7 0-7.1-1.3-9.6-3.7z"
    fill="#F8FAFF"
  />
  <path
    d="M45.2 14.4c-1.4 0-2.5 1-2.5 2.4s1 2.4 2.4 2.4h.1c1.5 0 2.5-1 2.5-2.4s-1-2.4-2.5-2.4zm.2 8.3c-1.4 0-2.4 1-2.4 2.4V46c0 1.4 1 2.4 2.4 2.4 1.5 0 2.5-1 2.5-2.4V25.1c0-1.4-1-2.4-2.5-2.4z"
    fill="#C7D7FF"
  />
</svg>
